<svg xmlns="http://www.w3.org/2000/svg" xmlns:xlink="http://www.w3.org/1999/xlink" width="40" zoomAndPan="magnify" viewBox="0 0 30 30.000001" height="40" preserveAspectRatio="xMidYMid meet" version="1.0"><defs><clipPath id="74065175f0"><path d="M 26 15 L 26.613281 15 L 26.613281 16 L 26 16 Z M 26 15 " clip-rule="nonzero"/></clipPath><clipPath id="c0b186949f"><path d="M 3.386719 18 L 17 18 L 17 22.019531 L 3.386719 22.019531 Z M 3.386719 18 " clip-rule="nonzero"/></clipPath><clipPath id="87d1e20c72"><path d="M 4 6.777344 L 26.613281 6.777344 L 26.613281 20 L 4 20 Z M 4 6.777344 " clip-rule="nonzero"/></clipPath><clipPath id="a6f226adc4"><path d="M 3.386719 17 L 5 17 L 5 19 L 3.386719 19 Z M 3.386719 17 " clip-rule="nonzero"/></clipPath></defs><path fill="#ffc107" d="M 17.652344 9.984375 C 17.628906 9.984375 17.609375 9.972656 17.59375 9.960938 C 17.570312 9.941406 17.550781 9.914062 17.550781 9.882812 L 17.554688 9.878906 C 17.554688 9.828125 17.597656 9.785156 17.652344 9.785156 C 17.710938 9.785156 17.753906 9.828125 17.753906 9.882812 C 17.753906 9.9375 17.710938 9.984375 17.652344 9.984375 " fill-opacity="1" fill-rule="nonzero"/><path fill="#ffc107" d="M 25.296875 9.648438 C 25.320312 9.632812 25.351562 9.625 25.382812 9.636719 L 25.386719 9.636719 C 25.4375 9.65625 25.464844 9.714844 25.445312 9.765625 C 25.425781 9.816406 25.367188 9.84375 25.316406 9.824219 C 25.261719 9.808594 25.234375 9.75 25.253906 9.699219 C 25.261719 9.675781 25.277344 9.660156 25.296875 9.648438 " fill-opacity="1" fill-rule="nonzero"/><path fill="#ffc107" d="M 23.667969 7.066406 C 23.675781 7.066406 23.683594 7.066406 23.691406 7.070312 C 23.742188 7.09375 23.765625 7.15625 23.742188 7.203125 C 23.71875 7.253906 23.65625 7.277344 23.605469 7.253906 C 23.558594 7.230469 23.539062 7.179688 23.554688 7.128906 L 23.558594 7.121094 C 23.578125 7.078125 23.625 7.058594 23.667969 7.066406 " fill-opacity="1" fill-rule="nonzero"/><path fill="#ffc107" d="M 23.128906 8.519531 C 23.144531 8.511719 23.160156 8.507812 23.175781 8.507812 C 23.261719 8.507812 23.328125 8.574219 23.328125 8.65625 C 23.328125 8.722656 23.289062 8.773438 23.234375 8.796875 C 23.214844 8.804688 23.195312 8.808594 23.175781 8.808594 C 23.09375 8.808594 23.023438 8.742188 23.023438 8.65625 C 23.023438 8.59375 23.066406 8.539062 23.128906 8.519531 " fill-opacity="1" fill-rule="nonzero"/><path fill="#ffc107" d="M 24.097656 15.648438 C 24.175781 15.625 24.261719 15.667969 24.289062 15.746094 C 24.292969 15.753906 24.289062 15.761719 24.292969 15.769531 C 24.300781 15.84375 24.261719 15.910156 24.191406 15.933594 C 24.113281 15.960938 24.027344 15.917969 24 15.839844 L 24 15.835938 C 23.976562 15.757812 24.019531 15.675781 24.097656 15.648438 " fill-opacity="1" fill-rule="nonzero"/><path fill="#ffc107" d="M 24.5 17.222656 C 24.554688 17.207031 24.613281 17.234375 24.628906 17.289062 C 24.648438 17.339844 24.617188 17.398438 24.566406 17.414062 C 24.511719 17.429688 24.453125 17.402344 24.4375 17.351562 C 24.417969 17.296875 24.449219 17.242188 24.5 17.222656 " fill-opacity="1" fill-rule="nonzero"/><g clip-path="url(#74065175f0)"><path fill="#ffc107" d="M 26.308594 15.882812 C 26.253906 15.902344 26.199219 15.871094 26.179688 15.820312 C 26.164062 15.769531 26.191406 15.710938 26.246094 15.695312 C 26.296875 15.675781 26.355469 15.707031 26.371094 15.757812 C 26.390625 15.8125 26.359375 15.867188 26.308594 15.882812 " fill-opacity="1" fill-rule="nonzero"/></g><path fill="#ffc107" d="M 24.371094 14.914062 C 24.316406 14.929688 24.261719 14.894531 24.246094 14.839844 C 24.234375 14.789062 24.269531 14.734375 24.324219 14.722656 C 24.375 14.707031 24.433594 14.742188 24.445312 14.792969 C 24.457031 14.847656 24.421875 14.902344 24.371094 14.914062 " fill-opacity="1" fill-rule="nonzero"/><g clip-path="url(#c0b186949f)"><path fill="#ffc107" d="M 3.5625 20.40625 C 3.59375 20.292969 3.695312 20.207031 3.820312 20.199219 C 3.714844 20.160156 3.640625 20.066406 3.632812 19.949219 C 3.59375 20.09375 3.566406 20.246094 3.5625 20.40625 Z M 16.628906 19.949219 C 16.621094 20.0625 16.546875 20.160156 16.441406 20.199219 C 16.566406 20.207031 16.667969 20.292969 16.699219 20.40625 C 16.695312 20.246094 16.667969 20.09375 16.628906 19.949219 Z M 16.699219 20.5625 C 16.667969 20.667969 16.582031 20.746094 16.476562 20.765625 C 16.558594 20.8125 16.617188 20.894531 16.628906 20.996094 C 16.667969 20.859375 16.691406 20.714844 16.699219 20.5625 Z M 7.476562 21.59375 L 7.5 21.59375 C 7.691406 21.585938 7.859375 21.5 7.976562 21.363281 C 8.078125 21.25 8.140625 21.097656 8.140625 20.933594 C 8.140625 21.078125 8.1875 21.210938 8.265625 21.320312 C 8.363281 21.449219 8.503906 21.546875 8.667969 21.582031 C 8.710938 21.589844 8.757812 21.59375 8.804688 21.59375 C 8.960938 21.59375 9.101562 21.539062 9.214844 21.449219 C 9.367188 21.328125 9.46875 21.140625 9.46875 20.933594 C 9.46875 21.070312 9.507812 21.195312 9.578125 21.300781 C 9.640625 21.394531 9.730469 21.46875 9.828125 21.519531 L 9.84375 21.527344 C 9.929688 21.570312 10.027344 21.59375 10.128906 21.59375 C 10.234375 21.59375 10.328125 21.570312 10.417969 21.527344 L 10.429688 21.519531 C 10.53125 21.46875 10.617188 21.394531 10.679688 21.300781 C 10.753906 21.195312 10.792969 21.070312 10.792969 20.933594 C 10.792969 21.140625 10.894531 21.328125 11.042969 21.449219 C 11.160156 21.539062 11.300781 21.59375 11.457031 21.59375 C 11.503906 21.59375 11.546875 21.589844 11.59375 21.582031 C 11.757812 21.546875 11.898438 21.449219 11.992188 21.320312 C 12.074219 21.210938 12.121094 21.078125 12.121094 20.933594 C 12.121094 21.097656 12.183594 21.25 12.285156 21.363281 C 12.402344 21.5 12.570312 21.585938 12.761719 21.59375 L 12.785156 21.59375 C 12.972656 21.59375 13.144531 21.515625 13.265625 21.386719 C 13.375 21.269531 13.445312 21.109375 13.445312 20.933594 L 13.445312 20.914062 L 14.777344 20.914062 C 14.878906 20.996094 15.007812 21.050781 15.148438 21.050781 C 15.464844 21.050781 15.722656 20.796875 15.722656 20.484375 C 15.722656 20.171875 15.464844 19.917969 15.148438 19.917969 C 15.007812 19.917969 14.878906 19.972656 14.777344 20.054688 L 5.484375 20.054688 C 5.382812 19.972656 5.253906 19.917969 5.113281 19.917969 C 4.796875 19.917969 4.539062 20.171875 4.539062 20.484375 C 4.539062 20.796875 4.796875 21.050781 5.113281 21.050781 C 5.253906 21.050781 5.382812 20.996094 5.484375 20.914062 L 6.816406 20.914062 L 6.816406 20.933594 C 6.816406 21.109375 6.882812 21.269531 6.996094 21.386719 C 7.117188 21.515625 7.289062 21.59375 7.476562 21.59375 Z M 3.632812 20.996094 C 3.644531 20.894531 3.703125 20.8125 3.785156 20.765625 C 3.679688 20.746094 3.59375 20.667969 3.5625 20.566406 C 3.570312 20.714844 3.59375 20.859375 3.632812 20.996094 Z M 15.679688 19.066406 L 4.582031 19.066406 C 4.21875 19.066406 3.898438 19.332031 3.714844 19.726562 C 3.769531 19.675781 3.84375 19.644531 3.921875 19.644531 C 3.984375 19.644531 4.039062 19.660156 4.085938 19.691406 C 4.042969 19.640625 4.015625 19.578125 4.015625 19.507812 C 4.015625 19.347656 4.144531 19.21875 4.308594 19.21875 C 4.429688 19.21875 4.535156 19.292969 4.578125 19.402344 C 4.578125 19.390625 4.574219 19.375 4.574219 19.363281 C 4.574219 19.203125 4.707031 19.074219 4.867188 19.074219 C 5.03125 19.074219 5.160156 19.203125 5.160156 19.363281 L 5.160156 19.375 L 5.160156 19.363281 C 5.160156 19.203125 5.292969 19.074219 5.453125 19.074219 C 5.613281 19.074219 5.746094 19.203125 5.746094 19.363281 L 5.746094 19.375 L 5.746094 19.363281 C 5.746094 19.203125 5.875 19.074219 6.039062 19.074219 C 6.199219 19.074219 6.328125 19.203125 6.328125 19.363281 L 6.328125 19.375 L 6.332031 19.375 L 6.328125 19.363281 C 6.328125 19.203125 6.460938 19.074219 6.621094 19.074219 C 6.785156 19.074219 6.914062 19.203125 6.914062 19.363281 L 6.914062 19.375 L 6.914062 19.363281 C 6.914062 19.203125 7.046875 19.074219 7.207031 19.074219 C 7.367188 19.074219 7.5 19.203125 7.5 19.363281 L 7.5 19.375 L 7.5 19.363281 C 7.5 19.203125 7.628906 19.074219 7.792969 19.074219 C 7.953125 19.074219 8.085938 19.203125 8.085938 19.363281 L 8.082031 19.375 L 8.085938 19.375 L 8.085938 19.363281 C 8.085938 19.203125 8.214844 19.074219 8.375 19.074219 C 8.539062 19.074219 8.667969 19.203125 8.667969 19.363281 L 8.667969 19.375 L 8.671875 19.375 L 8.667969 19.363281 C 8.667969 19.203125 8.800781 19.074219 8.960938 19.074219 C 9.121094 19.074219 9.253906 19.203125 9.253906 19.363281 L 9.253906 19.375 L 9.253906 19.363281 C 9.253906 19.203125 9.382812 19.074219 9.546875 19.074219 C 9.707031 19.074219 9.839844 19.203125 9.839844 19.363281 L 9.835938 19.375 L 9.839844 19.375 L 9.839844 19.363281 C 9.839844 19.203125 9.96875 19.074219 10.128906 19.074219 C 10.292969 19.074219 10.421875 19.203125 10.421875 19.363281 L 10.421875 19.375 L 10.421875 19.363281 C 10.421875 19.203125 10.554688 19.074219 10.714844 19.074219 C 10.875 19.074219 11.007812 19.203125 11.007812 19.363281 L 11.007812 19.375 L 11.007812 19.363281 C 11.007812 19.203125 11.136719 19.074219 11.300781 19.074219 C 11.460938 19.074219 11.59375 19.203125 11.59375 19.363281 L 11.589844 19.375 L 11.59375 19.375 L 11.59375 19.363281 C 11.59375 19.203125 11.722656 19.074219 11.882812 19.074219 C 12.046875 19.074219 12.175781 19.203125 12.175781 19.363281 L 12.175781 19.375 L 12.179688 19.375 L 12.175781 19.363281 C 12.175781 19.203125 12.308594 19.074219 12.46875 19.074219 C 12.628906 19.074219 12.761719 19.203125 12.761719 19.363281 L 12.761719 19.375 L 12.761719 19.363281 C 12.761719 19.203125 12.894531 19.074219 13.054688 19.074219 C 13.214844 19.074219 13.347656 19.203125 13.347656 19.363281 L 13.34375 19.375 L 13.347656 19.375 L 13.347656 19.363281 C 13.347656 19.203125 13.476562 19.074219 13.640625 19.074219 C 13.800781 19.074219 13.929688 19.203125 13.929688 19.363281 L 13.929688 19.375 L 13.933594 19.375 L 13.929688 19.363281 C 13.929688 19.203125 14.0625 19.074219 14.222656 19.074219 C 14.386719 19.074219 14.515625 19.203125 14.515625 19.363281 L 14.515625 19.375 L 14.515625 19.363281 C 14.515625 19.203125 14.648438 19.074219 14.808594 19.074219 C 14.96875 19.074219 15.101562 19.203125 15.101562 19.363281 L 15.101562 19.375 L 15.101562 19.363281 C 15.101562 19.203125 15.230469 19.074219 15.394531 19.074219 C 15.554688 19.074219 15.683594 19.203125 15.683594 19.363281 C 15.683594 19.375 15.683594 19.390625 15.679688 19.402344 C 15.722656 19.296875 15.828125 19.21875 15.953125 19.21875 C 16.113281 19.21875 16.246094 19.347656 16.246094 19.507812 C 16.246094 19.578125 16.21875 19.640625 16.175781 19.691406 C 16.222656 19.660156 16.277344 19.644531 16.335938 19.644531 C 16.417969 19.644531 16.492188 19.675781 16.546875 19.726562 C 16.363281 19.332031 16.042969 19.066406 15.679688 19.066406 Z M 4.582031 21.875 L 15.679688 21.875 C 16.039062 21.875 16.359375 21.617188 16.539062 21.226562 C 16.488281 21.277344 16.417969 21.308594 16.335938 21.308594 C 16.277344 21.308594 16.222656 21.289062 16.175781 21.261719 C 16.21875 21.308594 16.246094 21.375 16.246094 21.441406 C 16.246094 21.601562 16.113281 21.730469 15.953125 21.730469 C 15.832031 21.730469 15.730469 21.660156 15.6875 21.558594 L 15.683594 21.558594 C 15.683594 21.570312 15.683594 21.578125 15.683594 21.585938 C 15.683594 21.746094 15.554688 21.875 15.394531 21.875 C 15.234375 21.875 15.105469 21.75 15.101562 21.59375 C 15.09375 21.75 14.964844 21.875 14.808594 21.875 C 14.648438 21.875 14.523438 21.75 14.515625 21.59375 C 14.511719 21.75 14.382812 21.875 14.222656 21.875 C 14.066406 21.875 13.9375 21.75 13.933594 21.59375 L 13.929688 21.59375 C 13.925781 21.75 13.796875 21.875 13.640625 21.875 C 13.480469 21.875 13.351562 21.75 13.347656 21.59375 L 13.34375 21.59375 C 13.339844 21.75 13.210938 21.875 13.054688 21.875 C 12.894531 21.875 12.769531 21.75 12.761719 21.59375 C 12.753906 21.75 12.628906 21.875 12.46875 21.875 C 12.3125 21.875 12.183594 21.75 12.179688 21.59375 L 12.175781 21.59375 C 12.171875 21.75 12.042969 21.875 11.882812 21.875 C 11.726562 21.875 11.597656 21.75 11.59375 21.59375 L 11.589844 21.59375 C 11.585938 21.75 11.457031 21.875 11.300781 21.875 C 11.140625 21.875 11.015625 21.75 11.007812 21.59375 C 11 21.75 10.875 21.875 10.714844 21.875 C 10.558594 21.875 10.429688 21.75 10.421875 21.59375 C 10.417969 21.75 10.289062 21.875 10.128906 21.875 C 9.972656 21.875 9.84375 21.75 9.839844 21.59375 L 9.835938 21.59375 C 9.832031 21.75 9.703125 21.875 9.546875 21.875 C 9.386719 21.875 9.257812 21.75 9.253906 21.59375 C 9.246094 21.75 9.121094 21.875 8.960938 21.875 C 8.804688 21.875 8.675781 21.75 8.671875 21.59375 L 8.667969 21.59375 C 8.664062 21.75 8.535156 21.875 8.375 21.875 C 8.21875 21.875 8.089844 21.75 8.085938 21.59375 L 8.082031 21.59375 C 8.078125 21.75 7.949219 21.875 7.792969 21.875 C 7.632812 21.875 7.503906 21.75 7.5 21.59375 C 7.492188 21.75 7.363281 21.875 7.207031 21.875 C 7.046875 21.875 6.921875 21.75 6.914062 21.59375 C 6.910156 21.75 6.78125 21.875 6.621094 21.875 C 6.464844 21.875 6.335938 21.75 6.332031 21.59375 L 6.328125 21.59375 C 6.324219 21.75 6.195312 21.875 6.039062 21.875 C 5.878906 21.875 5.75 21.75 5.746094 21.59375 C 5.738281 21.75 5.609375 21.875 5.453125 21.875 C 5.292969 21.875 5.167969 21.75 5.160156 21.59375 C 5.15625 21.75 5.027344 21.875 4.867188 21.875 C 4.707031 21.875 4.574219 21.746094 4.574219 21.585938 C 4.574219 21.578125 4.578125 21.570312 4.578125 21.558594 L 4.574219 21.558594 C 4.53125 21.660156 4.429688 21.730469 4.308594 21.730469 C 4.144531 21.730469 4.015625 21.601562 4.015625 21.441406 C 4.015625 21.375 4.042969 21.308594 4.085938 21.261719 C 4.039062 21.289062 3.984375 21.308594 3.921875 21.308594 C 3.84375 21.308594 3.773438 21.277344 3.722656 21.226562 C 3.902344 21.617188 4.222656 21.875 4.582031 21.875 Z M 4.582031 18.921875 L 6.183594 18.921875 L 6.609375 18.613281 L 13.4375 18.613281 L 14.078125 18.921875 L 15.679688 18.921875 C 16.324219 18.921875 16.851562 19.617188 16.851562 20.472656 C 16.851562 21.328125 16.324219 22.023438 15.679688 22.023438 L 4.582031 22.023438 C 3.9375 22.023438 3.410156 21.328125 3.410156 20.472656 C 3.410156 19.617188 3.9375 18.921875 4.582031 18.921875 " fill-opacity="1" fill-rule="nonzero"/></g><path fill="#ffc107" d="M 5.6875 20.484375 C 5.6875 20.382812 5.65625 20.285156 5.609375 20.203125 L 14.652344 20.203125 C 14.601562 20.285156 14.574219 20.382812 14.574219 20.484375 C 14.574219 20.585938 14.601562 20.683594 14.652344 20.765625 L 5.609375 20.765625 C 5.65625 20.683594 5.6875 20.585938 5.6875 20.484375 " fill-opacity="1" fill-rule="nonzero"/><path fill="#ffc107" d="M 15.277344 20.222656 C 15.375 20.269531 15.445312 20.367188 15.445312 20.484375 C 15.445312 20.601562 15.375 20.699219 15.277344 20.746094 C 15.246094 20.757812 15.214844 20.765625 15.183594 20.765625 L 15.074219 20.765625 C 14.945312 20.734375 14.851562 20.621094 14.851562 20.484375 C 14.851562 20.347656 14.945312 20.234375 15.074219 20.203125 L 15.183594 20.203125 C 15.214844 20.203125 15.246094 20.210938 15.277344 20.222656 " fill-opacity="1" fill-rule="nonzero"/><path fill="#ffc107" d="M 4.984375 20.746094 C 4.886719 20.699219 4.816406 20.601562 4.816406 20.484375 C 4.816406 20.367188 4.886719 20.269531 4.984375 20.222656 C 5.015625 20.210938 5.046875 20.203125 5.078125 20.203125 L 5.1875 20.203125 C 5.316406 20.234375 5.410156 20.347656 5.410156 20.484375 C 5.410156 20.621094 5.316406 20.734375 5.1875 20.765625 L 5.078125 20.765625 C 5.046875 20.765625 5.015625 20.757812 4.984375 20.746094 " fill-opacity="1" fill-rule="nonzero"/><g clip-path="url(#87d1e20c72)"><path fill="#ffc107" d="M 11.058594 16.226562 L 11.789062 16.226562 L 11.789062 14.164062 L 11.058594 14.164062 Z M 11.199219 16.941406 L 12.308594 16.941406 L 12.308594 16.605469 L 11.199219 16.605469 Z M 13.175781 17.550781 L 13.175781 17.660156 L 15.703125 17.660156 L 15.664062 17.574219 L 15.605469 17.441406 L 14.609375 15.125 L 14.195312 14.164062 L 12.183594 14.164062 L 12.183594 16.273438 C 12.753906 16.425781 13.175781 16.941406 13.175781 17.550781 Z M 16.527344 12.507812 C 16.398438 12.707031 16.289062 12.941406 16.175781 13.222656 C 15.90625 13.890625 15.535156 14.726562 15.332031 15.214844 L 15.796875 16.070312 L 15.933594 15.085938 L 16.238281 15.085938 Z M 16.976562 11.898438 C 17.058594 11.84375 17.117188 11.75 17.117188 11.644531 C 17.117188 11.480469 16.980469 11.347656 16.8125 11.347656 C 16.648438 11.347656 16.511719 11.480469 16.511719 11.644531 C 16.511719 11.726562 16.546875 11.804688 16.601562 11.855469 C 16.65625 11.910156 16.730469 11.945312 16.8125 11.945312 C 16.875 11.945312 16.929688 11.925781 16.976562 11.898438 Z M 22.898438 8.242188 L 23.203125 7.554688 L 17.921875 9.945312 L 17.921875 9.957031 C 17.921875 9.980469 17.921875 10.003906 17.914062 10.027344 C 19.722656 9.390625 22.339844 8.445312 22.898438 8.242188 Z M 24.597656 17.507812 C 24.703125 17.472656 24.757812 17.359375 24.726562 17.257812 C 24.707031 17.207031 24.671875 17.167969 24.632812 17.144531 C 24.582031 17.121094 24.527344 17.113281 24.46875 17.128906 C 24.425781 17.144531 24.390625 17.171875 24.367188 17.207031 C 24.332031 17.253906 24.320312 17.320312 24.34375 17.378906 C 24.375 17.484375 24.488281 17.542969 24.597656 17.507812 Z M 24.574219 15.226562 L 24.542969 15.613281 C 24.578125 15.6875 24.589844 15.769531 24.574219 15.855469 L 24.488281 16.28125 L 24.578125 16.542969 L 24.625 16.683594 L 24.675781 16.839844 L 25.808594 15.84375 Z M 26.46875 15.726562 C 26.453125 15.683594 26.425781 15.652344 26.390625 15.628906 C 26.339844 15.59375 26.277344 15.582031 26.214844 15.601562 C 26.109375 15.636719 26.050781 15.746094 26.085938 15.851562 C 26.101562 15.902344 26.140625 15.945312 26.183594 15.964844 C 26.230469 15.988281 26.285156 15.996094 26.339844 15.976562 C 26.445312 15.945312 26.503906 15.832031 26.46875 15.726562 Z M 25.214844 9.964844 C 25.207031 9.960938 25.199219 9.960938 25.1875 9.957031 C 25.101562 9.925781 25.039062 9.867188 25 9.792969 L 24.617188 14.675781 L 25.972656 15.355469 Z M 25.417969 9.542969 C 25.3125 9.507812 25.199219 9.5625 25.160156 9.660156 L 25.160156 9.664062 C 25.132812 9.738281 25.152344 9.8125 25.203125 9.867188 C 25.222656 9.890625 25.25 9.90625 25.28125 9.917969 C 25.386719 9.953125 25.503906 9.902344 25.539062 9.796875 C 25.558594 9.75 25.554688 9.699219 25.535156 9.660156 C 25.53125 9.648438 25.527344 9.636719 25.519531 9.625 C 25.496094 9.589844 25.460938 9.558594 25.417969 9.542969 Z M 24.542969 14.773438 C 24.515625 14.664062 24.40625 14.597656 24.300781 14.625 C 24.191406 14.648438 24.125 14.757812 24.148438 14.863281 C 24.175781 14.96875 24.285156 15.035156 24.390625 15.011719 C 24.5 14.984375 24.566406 14.878906 24.542969 14.773438 Z M 23.851562 15.867188 L 23.855469 15.886719 C 23.898438 16.015625 24.027344 16.097656 24.164062 16.089844 C 24.1875 16.085938 24.214844 16.085938 24.238281 16.074219 C 24.257812 16.070312 24.277344 16.0625 24.296875 16.050781 C 24.332031 16.03125 24.363281 16 24.386719 15.96875 C 24.441406 15.894531 24.464844 15.796875 24.433594 15.699219 C 24.378906 15.542969 24.207031 15.457031 24.050781 15.507812 C 23.898438 15.558594 23.8125 15.714844 23.851562 15.867188 Z M 23.734375 6.984375 C 23.671875 6.953125 23.597656 6.960938 23.542969 6.992188 C 23.511719 7.011719 23.484375 7.042969 23.46875 7.078125 C 23.449219 7.113281 23.445312 7.152344 23.449219 7.191406 C 23.460938 7.253906 23.5 7.3125 23.5625 7.34375 C 23.585938 7.351562 23.609375 7.355469 23.632812 7.359375 C 23.714844 7.367188 23.796875 7.324219 23.832031 7.246094 C 23.875 7.160156 23.847656 7.058594 23.773438 7.003906 C 23.761719 6.996094 23.75 6.988281 23.734375 6.984375 Z M 23.175781 8.957031 C 23.214844 8.957031 23.253906 8.949219 23.285156 8.933594 C 23.398438 8.890625 23.480469 8.785156 23.480469 8.65625 C 23.480469 8.492188 23.34375 8.359375 23.175781 8.359375 C 23.140625 8.359375 23.105469 8.367188 23.074219 8.378906 C 22.957031 8.421875 22.875 8.527344 22.875 8.65625 C 22.875 8.824219 23.011719 8.957031 23.175781 8.957031 Z M 17.652344 9.683594 C 17.621094 9.683594 17.585938 9.695312 17.558594 9.707031 C 17.535156 9.722656 17.511719 9.738281 17.496094 9.761719 C 17.46875 9.792969 17.453125 9.835938 17.453125 9.882812 C 17.453125 9.992188 17.542969 10.078125 17.652344 10.082031 C 17.726562 10.082031 17.789062 10.042969 17.824219 9.988281 C 17.84375 9.957031 17.855469 9.921875 17.855469 9.882812 C 17.855469 9.773438 17.765625 9.683594 17.652344 9.683594 Z M 4.695312 16.4375 L 7.253906 16.4375 L 7.253906 16.320312 L 4.695312 16.320312 Z M 4.695312 17.765625 L 4.695312 17.882812 L 7.253906 17.882812 L 7.253906 17.765625 Z M 4.695312 17.585938 L 4.695312 17.703125 L 7.253906 17.703125 L 7.253906 17.585938 Z M 4.695312 17.40625 L 4.695312 17.523438 L 7.253906 17.523438 L 7.253906 17.40625 Z M 4.695312 17.222656 L 4.695312 17.339844 L 7.253906 17.339844 L 7.253906 17.222656 Z M 4.695312 17.042969 L 4.695312 17.160156 L 7.253906 17.160156 L 7.253906 17.042969 Z M 4.695312 16.863281 L 4.695312 16.980469 L 7.253906 16.980469 L 7.253906 16.863281 Z M 7.253906 16.617188 L 7.253906 16.5 L 4.695312 16.5 L 4.695312 16.617188 Z M 4.695312 16.679688 L 4.695312 16.800781 L 7.253906 16.800781 L 7.253906 16.679688 Z M 10.421875 18.613281 L 4.503906 18.613281 C 4.292969 18.613281 4.125 18.445312 4.125 18.238281 L 4.125 16.226562 C 4.125 16.023438 4.292969 15.855469 4.503906 15.855469 L 5.535156 15.855469 L 5.535156 15.195312 L 7.6875 15.195312 L 7.6875 15.488281 L 8.972656 15.488281 L 8.972656 14.679688 L 8.84375 14.679688 L 8.84375 14.605469 C 8.9375 14.449219 9.070312 14.355469 9.214844 14.355469 C 9.359375 14.355469 9.492188 14.449219 9.585938 14.605469 L 9.585938 14.679688 L 9.457031 14.679688 L 9.457031 15.488281 L 9.839844 15.488281 L 9.839844 15.855469 L 10.421875 15.855469 L 10.421875 13.710938 L 10.09375 13.710938 C 10.171875 13.5 10.378906 13.347656 10.621094 13.347656 L 14.105469 13.347656 C 14.511719 12.609375 15.183594 11.542969 15.980469 10.890625 L 15.980469 10.894531 L 16.46875 10.101562 L 17.4375 9.644531 L 17.441406 9.644531 C 17.480469 9.625 17.527344 9.617188 17.578125 9.617188 C 17.621094 9.617188 17.660156 9.625 17.695312 9.636719 L 23.320312 7.089844 C 23.328125 7.066406 23.332031 7.039062 23.34375 7.015625 C 23.421875 6.851562 23.617188 6.78125 23.785156 6.859375 C 23.824219 6.878906 23.859375 6.90625 23.890625 6.9375 L 25.132812 8.050781 L 25.535156 8.554688 L 25.648438 9.605469 L 25.648438 9.609375 C 25.652344 9.65625 25.648438 9.703125 25.628906 9.75 C 25.617188 9.785156 25.601562 9.8125 25.578125 9.839844 L 26.378906 15.542969 C 26.410156 15.558594 26.441406 15.578125 26.464844 15.601562 L 26.472656 15.605469 C 26.582031 15.707031 26.585938 15.875 26.484375 15.980469 C 26.453125 16.007812 26.421875 16.03125 26.382812 16.042969 L 24.761719 17.476562 C 24.726562 17.519531 24.679688 17.558594 24.621094 17.578125 C 24.605469 17.582031 24.582031 17.582031 24.550781 17.582031 L 24.527344 17.582031 C 24.515625 17.578125 24.5 17.578125 24.480469 17.574219 C 24.316406 17.550781 24.058594 17.480469 23.855469 17.421875 C 23.847656 18.183594 23.316406 18.902344 22.496094 19.167969 C 21.519531 19.484375 20.492188 19.042969 20.132812 18.179688 L 20.128906 18.183594 L 20.019531 17.972656 L 19.417969 16.816406 L 19.425781 16.8125 L 18.804688 15.59375 L 19.605469 15.984375 L 20.035156 16.683594 L 23.734375 15.890625 L 23.769531 15.703125 C 23.773438 15.683594 23.78125 15.667969 23.785156 15.648438 L 22.855469 9.300781 C 21.691406 9.792969 18.785156 11.027344 17.960938 11.394531 C 17.527344 11.589844 17.214844 11.773438 16.964844 11.992188 L 16.617188 15.085938 L 16.90625 15.085938 L 16.734375 16.3125 L 16.90625 16.3125 L 16.644531 18.613281 L 10.421875 18.613281 " fill-opacity="1" fill-rule="nonzero"/></g><g clip-path="url(#a6f226adc4)"><path fill="#ffc107" d="M 3.910156 18 L 3.910156 17.878906 C 3.910156 17.757812 3.992188 17.648438 4.121094 17.585938 L 4.121094 18.292969 C 3.992188 18.230469 3.910156 18.125 3.910156 18 " fill-opacity="1" fill-rule="nonzero"/></g><path fill="#ffc107" d="M 16.660156 11.644531 C 16.660156 11.5625 16.730469 11.496094 16.8125 11.496094 C 16.898438 11.496094 16.964844 11.5625 16.964844 11.644531 C 16.964844 11.726562 16.898438 11.796875 16.8125 11.796875 C 16.730469 11.796875 16.660156 11.726562 16.660156 11.644531 " fill-opacity="1" fill-rule="nonzero"/></svg>